HIERARCHY
ROOT Hips
{
	OFFSET 0.00000 0.00000 0.00000
	CHANNELS 6 Xposition Yposition Zposition Yrotation Zrotation Xrotation 
	JOINT Lumbar
	{
		OFFSET 0 0 0
		CHANNELS 3 Zrotation Xrotation Yrotation
		JOINT Neck
		{
			OFFSET 0.00 0.2701 0.00
			CHANNELS 3 Zrotation Xrotation Yrotation
			End Site
			{
				OFFSET 0.00 0.1379 0.00
			}
		}
		JOINT RightShoulder
		{
			OFFSET 0.0119 0.2289 0.1181
			CHANNELS 3 Zrotation Xrotation Yrotation
			JOINT RightElbow
			{
				OFFSET 0.00 -0.1475 0.00
				CHANNELS 2 Zrotation Yrotation
				JOINT RightWrist
				{
					OFFSET 0.00 -0.1605 0.00
					CHANNELS 2 Zrotation Xrotation
					End Site
					{
						OFFSET 0.0040 -0.1068 0.0006
					}
				}
			}
		}
		JOINT LeftShoulder
		{
			OFFSET 0.0119 0.2289 -0.1181
			CHANNELS 3 Zrotation Xrotation Yrotation
			JOINT LeftElbow
			{
				OFFSET 0.00 -0.1475 0.00
				CHANNELS 2 Zrotation Yrotation
				JOINT LeftWrist
				{
					OFFSET 0.00 -0.1605 0.00
					CHANNELS 2 Zrotation Xrotation
					End Site
					{
						OFFSET 0.0040 -0.1068 -0.0006
					}
				}
			}
		}
	}
	JOINT RightHip
	{
		OFFSET 0.0316 -0.0424 0.0458
		CHANNELS 3 Zrotation Xrotation Yrotation
		JOINT RightKnee
		{
			OFFSET 0.00 -0.2438 0.00
			CHANNELS 1 Zrotation
			JOINT RightAnkle
			{
				OFFSET 0.00 -0.2449 0.00
				CHANNELS 3 Zrotation Xrotation Yrotation
				End Site
				{
					OFFSET 0.1237 -0.0542 0.0051
				}
			}
		}
	}
	JOINT LeftHip
	{
		OFFSET 0.0316 -0.0424 -0.0458
		CHANNELS 3 Zrotation Xrotation Yrotation
		JOINT LeftKnee
		{
			OFFSET 0.00 -0.2438 0.00
			CHANNELS 1 Zrotation
			JOINT LeftAnkle
			{
				OFFSET 0.00 -0.2449 0.00
				CHANNELS 3 Zrotation Xrotation Yrotation
				End Site
				{
					OFFSET 0.1237 -0.0542 -0.0051
				}
			}
		}
	}
}
MOTION
Frames: 17
Frame Time: 0.02
0 0.57926 0 169.01095 0 3.05784 8.21511 -1.41206 1.13958 -28.12299 2.28719 3.17411 26.84017 -13.80656 -13.78351 8.54511 78.44625 -1.51262 3.01267 23.14526 5.8309 -14.55764 7.88339 -76.62807 -5.84566 0.91078 3.71517 1.97993 18.44284 -23.60498 11.37405 -10.17974 -15.32006 1.50073 -4.32666 -6.55334 -19.72409 9.66326 8.92694 14.84684
-0.00027 0.57922 -0.00019 169.11586 0 3.06141 8.26757 -1.36906 1.11943 -28.2165 2.26809 3.12752 26.92977 -13.80447 -13.86774 8.55542 78.42408 -1.51197 2.99234 23.22375 5.85587 -14.57955 7.90401 -76.59225 -5.83489 0.89914 3.67477 1.98286 18.35377 -23.60253 11.40451 -10.19363 -15.334 1.52264 -4.32491 -6.65078 -19.79912 9.68964 8.94913 14.84037
-0.00054 0.57917 -0.00038 169.22048 0 3.06484 8.31926 -1.32616 1.09925 -28.30885 2.24959 3.0813 27.01833 -13.8031 -13.95052 8.56615 78.4022 -1.51136 2.97193 23.30103 5.88039 -14.60103 7.92463 -76.5569 -5.82432 0.88777 3.63454 1.98577 18.26495 -23.59993 11.43488 -10.20757 -15.34768 1.54481 -4.32318 -6.74816 -19.87433 9.716 8.97128 14.83412
-0.0008 0.57912 -0.00057 169.32515 0 3.06782 8.36927 -1.28323 1.0788 -28.39824 2.23274 3.03567 27.10447 -13.80371 -14.03007 8.57807 78.38126 -1.51087 2.95129 23.37523 5.90397 -14.62106 7.9452 -76.52317 -5.81432 0.87755 3.59413 1.98856 18.17612 -23.59585 11.46499 -10.22163 -15.36052 1.568 -4.32137 -6.84656 -19.95057 9.74236 8.99346 14.82875
-0.00109 0.57907 -0.00077 169.42977 0 3.07323 8.42925 -1.24046 1.05983 -28.50418 2.20648 2.98637 27.20438 -13.79277 -14.12886 8.58296 78.35538 -1.5097 2.93221 23.46688 5.93329 -14.64885 7.96573 -76.48093 -5.80117 0.86144 3.55411 1.99193 18.08719 -23.59859 11.49621 -10.23478 -15.37787 1.58551 -4.31983 -6.93993 -20.02084 9.76847 9.01548 14.81882
-0.00132 0.57903 -0.00094 169.53424 0 3.0735 8.46738 -1.19738 1.03769 -28.57444 2.2006 2.94528 27.27443 -13.80698 -14.18539 8.60322 78.33994 -1.50998 2.90963 23.52074 5.94994 -14.66016 7.98656 -76.45668 -5.79476 0.85769 3.51368 1.99409 17.99867 -23.58761 11.52522 -10.25002 -15.38561 1.6152 -4.31783 -7.04358 -20.104 9.79524 9.03783 14.81849
-0.00141 0.57899 -0.00103 169.64273 0 3.0591 8.45013 -1.15229 1.00629 -28.55067 2.24909 2.92311 27.26748 -13.88764 -14.13475 8.66385 78.35417 -1.51432 2.87831 23.47592 5.93468 -14.6248 8.00645 -76.48375 -5.80685 0.89023 3.46769 1.99268 17.90763 -23.53104 11.54736 -10.27039 -15.36655 1.67911 -4.31359 -7.18184 -20.22364 9.82353 9.06156 14.84611
-0.00144 0.57895 -0.00108 169.75048 0 3.0396 8.41008 -1.1071 0.97168 -28.49093 2.31862 2.90992 27.23014 -13.99437 -14.03959 8.74042 78.37884 -1.52009 2.84331 23.39274 5.9059 -14.57285 8.02683 -76.52863 -5.8257 0.93486 3.42197 1.99 17.81737 -23.46189 11.56751 -10.2931 -15.33774 1.75525 -4.30909 -7.32955 -20.35629 9.85258 9.08561 14.88319
-0.00149 0.57891 -0.00114 169.85569 0 3.02271 8.37695 -1.06262 0.93885 -28.44349 2.37975 2.89502 27.20216 -14.09119 -13.95857 8.81115 78.39816 -1.52522 2.80931 23.32226 5.88146 -14.52937 8.04838 -76.56447 -5.84167 0.97266 3.37908 1.98816 17.72932 -23.40351 11.58903 -10.31507 -15.31365 1.82554 -4.30527 -7.46895 -20.48255 9.88145 9.10916 14.91507
-0.00155 0.57887 -0.00123 169.9726 0 3.00455 8.35753 -1.01518 0.90485 -28.40938 2.43573 2.87004 27.18978 -14.17967 -13.90345 8.87603 78.41985 -1.53041 2.77799 23.26818 5.8652 -14.48253 8.06471 -76.60472 -5.85716 1.01625 3.32412 1.98558 17.63139 -23.3241 11.6083 -10.3353 -15.2887 1.89715 -4.2989 -7.62495 -20.61071 9.9095 9.134 14.95076
-0.00159 0.57883 -0.00125 170.0655 0 2.98787 8.30517 -0.97408 0.87233 -28.34368 2.50774 2.86829 27.14166 -14.29189 -13.78359 8.95679 78.4393 -1.53565 2.7404 23.17533 5.82797 -14.43806 8.09119 -76.63948 -5.87486 1.05045 3.29386 1.9838 17.55307 -23.28513 11.63215 -10.36017 -15.2628 1.96877 -4.29801 -7.74906 -20.73813 9.93961 9.15647 14.98077
-0.00152 0.57878 -0.0011 170.08821 0 2.97627 8.1591 -0.94887 0.84602 -28.16197 2.61595 2.92771 26.97061 -14.46178 -13.49799 9.07812 78.4484 -1.54174 2.68461 22.9491 5.74264 -14.40955 8.15281 -76.65924 -5.90037 1.0575 3.33589 1.98808 17.53789 -23.36452 11.66642 -10.39381 -15.24029 2.03873 -4.31039 -7.77935 -20.85929 9.97397 9.17043 14.99253
-0.00143 0.57872 -0.00088 170.08786 0 2.96648 7.98261 -0.93037 0.82096 -27.95862 2.73981 3.01044 26.77224 -14.65484 -13.14866 9.21464 78.45533 -1.54736 2.62291 22.69377 5.6356 -14.38271 8.22331 -76.67208 -5.9272 1.05438 3.40194 1.99239 17.54035 -23.48454 11.70609 -10.4329 -15.21648 2.10792 -4.32879 -7.77808 -20.97935 10.01068 9.18241 14.99825
-0.00137 0.57866 -0.00068 170.10035 0 2.95593 7.82505 -0.90986 0.79458 -27.7874 2.85887 3.0829 26.605 -14.83838 -12.82678 9.34397 78.4641 -1.55287 2.56514 22.4727 5.53412 -14.35199 8.28498 -76.68505 -5.95131 1.05478 3.45434 1.9946 17.52915 -23.58337 11.74485 -10.47152 -15.1909 2.17675 -4.34548 -7.79326 -21.10072 10.04703 9.19652 15.00693
-0.00123 0.5786 -0.00051 170.1016 0 2.94456 7.64361 -0.88489 0.77168 -27.513 2.97024 3.15392 26.35076 -15.01898 -12.50861 9.47562 78.46902 -1.56094 2.50217 22.15351 5.44988 -14.33511 8.36679 -76.7111 -5.98481 1.06021 3.51848 2.00627 17.54325 -23.69254 11.77624 -10.50091 -15.17498 2.24945 -4.35721 -7.79901 -21.21954 10.08009 9.20527 15.01518
-0.00125 0.57854 -0.00027 170.12239 0 2.93585 7.50691 -0.87093 0.74133 -27.45863 3.09939 3.23386 26.2803 -15.21037 -12.16957 9.60516 78.48208 -1.56208 2.44845 22.04227 5.32534 -14.28848 8.40888 -76.70836 -5.99873 1.05263 3.56363 1.99738 17.50702 -23.79092 11.82528 -10.55187 -15.13873 2.31321 -4.38148 -7.81789 -21.34273 10.12095 9.22494 15.02258
-0.00165 0.57849 0.00014 170.1893 0 2.93016 7.48338 -0.88457 0.69505 -27.92898 3.28836 3.32836 26.64676 -15.43066 -11.77917 9.73059 78.51122 -1.55718 2.42427 22.42338 5.08958 -14.17267 8.3387 -76.625 -5.9605 1.01175 3.55303 1.93936 17.34369 -23.84241 11.91256 -10.65119 -15.04745 2.35718 -4.43236 -7.87157 -21.4823 10.17921 9.27312 15.03083
